<mxfile host="Electron" modified="2023-12-12T01:54:35.368Z" agent="Mozilla/5.0 (Windows NT 10.0; Win64; x64) AppleWebKit/537.36 (KHTML, like Gecko) draw.io/22.1.2 Chrome/114.0.5735.289 Electron/25.9.4 Safari/537.36" etag="2OSdeJwD8i4sC6jsq6-g" version="22.1.2" type="device" pages="3">
  <diagram name="Page-1" id="xjxe2lPG4Y7tmnFVplY_">
    <mxGraphModel dx="1290" dy="621" grid="1" gridSize="10" guides="1" tooltips="1" connect="1" arrows="1" fold="1" page="1" pageScale="1" pageWidth="827" pageHeight="1169" math="0" shadow="0">
      <root>
        <mxCell id="0" />
        <mxCell id="1" parent="0" />
        <mxCell id="kmOb0qHXjrhH6Z8pBhy3-2" value="&lt;font style=&quot;font-size: 18px;&quot;&gt;Nicolas &lt;/font&gt;&lt;font style=&quot;font-size: 18px;&quot;&gt;Holmgren&lt;/font&gt;" style="text;html=1;align=center;verticalAlign=middle;resizable=0;points=[];autosize=1;strokeColor=none;fillColor=none;" vertex="1" parent="1">
          <mxGeometry x="40" y="40" width="170" height="40" as="geometry" />
        </mxCell>
        <mxCell id="kmOb0qHXjrhH6Z8pBhy3-3" value="&lt;font style=&quot;font-size: 18px;&quot;&gt;This is the flowchart and outline of our final java project&lt;br&gt;We are making a bank account where the user will create an account&lt;br&gt;there will be a functionality for adding money and withdrawling money from their account&lt;br&gt;we will be using a try and catch for making sure that when the user does take money out that&lt;br&gt;they dont try to take more money then they actually have in the account.&lt;br&gt;&lt;br&gt;&lt;br&gt;the first thing is to ak the user to create an account, this will ask the user for their first andlast name&lt;br&gt;this will set their account user name, and they will be also asked to create a password&lt;br&gt;&lt;br&gt;&lt;/font&gt;" style="text;html=1;align=center;verticalAlign=middle;resizable=0;points=[];autosize=1;strokeColor=none;fillColor=none;" vertex="1" parent="1">
          <mxGeometry x="9" y="160" width="810" height="230" as="geometry" />
        </mxCell>
      </root>
    </mxGraphModel>
  </diagram>
  <diagram id="wqc6ttcumCvlscuu791u" name="Page-2">
    <mxGraphModel dx="1276" dy="421" grid="1" gridSize="10" guides="1" tooltips="1" connect="1" arrows="1" fold="1" page="1" pageScale="1" pageWidth="827" pageHeight="1169" math="0" shadow="0">
      <root>
        <mxCell id="0" />
        <mxCell id="1" parent="0" />
        <mxCell id="XFtc8W5LfdA4O5aleAHy-3" style="edgeStyle=orthogonalEdgeStyle;rounded=0;orthogonalLoop=1;jettySize=auto;html=1;entryX=0.5;entryY=0;entryDx=0;entryDy=0;" edge="1" parent="1" source="XFtc8W5LfdA4O5aleAHy-1" target="XFtc8W5LfdA4O5aleAHy-2">
          <mxGeometry relative="1" as="geometry" />
        </mxCell>
        <mxCell id="XFtc8W5LfdA4O5aleAHy-1" value="Main()" style="ellipse;whiteSpace=wrap;html=1;" vertex="1" parent="1">
          <mxGeometry x="40" y="10" width="150" height="80" as="geometry" />
        </mxCell>
        <mxCell id="XFtc8W5LfdA4O5aleAHy-2" value="createAccount()" style="shape=process;whiteSpace=wrap;html=1;backgroundOutline=1;" vertex="1" parent="1">
          <mxGeometry x="28.75" y="110" width="172.5" height="80" as="geometry" />
        </mxCell>
        <mxCell id="XFtc8W5LfdA4O5aleAHy-6" style="edgeStyle=orthogonalEdgeStyle;rounded=0;orthogonalLoop=1;jettySize=auto;html=1;entryX=0.5;entryY=0;entryDx=0;entryDy=0;" edge="1" parent="1" source="XFtc8W5LfdA4O5aleAHy-4" target="XFtc8W5LfdA4O5aleAHy-5">
          <mxGeometry relative="1" as="geometry" />
        </mxCell>
        <mxCell id="XFtc8W5LfdA4O5aleAHy-4" value="createAccount()" style="ellipse;whiteSpace=wrap;html=1;" vertex="1" parent="1">
          <mxGeometry x="260" y="10" width="120" height="80" as="geometry" />
        </mxCell>
        <mxCell id="XFtc8W5LfdA4O5aleAHy-8" style="edgeStyle=orthogonalEdgeStyle;rounded=0;orthogonalLoop=1;jettySize=auto;html=1;" edge="1" parent="1" source="XFtc8W5LfdA4O5aleAHy-5" target="XFtc8W5LfdA4O5aleAHy-7">
          <mxGeometry relative="1" as="geometry" />
        </mxCell>
        <mxCell id="XFtc8W5LfdA4O5aleAHy-5" value="str setName = display &quot;What is your full name&quot;" style="rounded=0;whiteSpace=wrap;html=1;" vertex="1" parent="1">
          <mxGeometry x="260" y="110" width="120" height="60" as="geometry" />
        </mxCell>
        <mxCell id="XFtc8W5LfdA4O5aleAHy-12" style="edgeStyle=orthogonalEdgeStyle;rounded=0;orthogonalLoop=1;jettySize=auto;html=1;entryX=0.5;entryY=0;entryDx=0;entryDy=0;" edge="1" parent="1" source="XFtc8W5LfdA4O5aleAHy-7" target="XFtc8W5LfdA4O5aleAHy-11">
          <mxGeometry relative="1" as="geometry" />
        </mxCell>
        <mxCell id="XFtc8W5LfdA4O5aleAHy-7" value="Str setPassword = display &quot;Create a password&quot;&amp;nbsp;" style="rounded=0;whiteSpace=wrap;html=1;" vertex="1" parent="1">
          <mxGeometry x="260" y="190" width="120" height="60" as="geometry" />
        </mxCell>
        <mxCell id="XFtc8W5LfdA4O5aleAHy-10" style="edgeStyle=orthogonalEdgeStyle;rounded=0;orthogonalLoop=1;jettySize=auto;html=1;entryX=1;entryY=0.25;entryDx=0;entryDy=0;" edge="1" parent="1" source="XFtc8W5LfdA4O5aleAHy-9" target="XFtc8W5LfdA4O5aleAHy-7">
          <mxGeometry relative="1" as="geometry" />
        </mxCell>
        <mxCell id="XFtc8W5LfdA4O5aleAHy-9" value="These are our setters" style="text;html=1;align=center;verticalAlign=middle;resizable=0;points=[];autosize=1;strokeColor=none;fillColor=none;" vertex="1" parent="1">
          <mxGeometry x="400" y="160" width="140" height="30" as="geometry" />
        </mxCell>
        <mxCell id="XFtc8W5LfdA4O5aleAHy-11" value="input setName" style="shape=parallelogram;perimeter=parallelogramPerimeter;whiteSpace=wrap;html=1;fixedSize=1;" vertex="1" parent="1">
          <mxGeometry x="245" y="270" width="150" height="60" as="geometry" />
        </mxCell>
        <mxCell id="XFtc8W5LfdA4O5aleAHy-27" style="edgeStyle=orthogonalEdgeStyle;rounded=0;orthogonalLoop=1;jettySize=auto;html=1;entryX=0.5;entryY=0;entryDx=0;entryDy=0;" edge="1" parent="1" source="XFtc8W5LfdA4O5aleAHy-13" target="XFtc8W5LfdA4O5aleAHy-26">
          <mxGeometry relative="1" as="geometry" />
        </mxCell>
        <mxCell id="XFtc8W5LfdA4O5aleAHy-13" value="input setPassword" style="shape=parallelogram;perimeter=parallelogramPerimeter;whiteSpace=wrap;html=1;fixedSize=1;" vertex="1" parent="1">
          <mxGeometry x="230" y="350" width="150" height="60" as="geometry" />
        </mxCell>
        <mxCell id="XFtc8W5LfdA4O5aleAHy-15" style="edgeStyle=orthogonalEdgeStyle;rounded=0;orthogonalLoop=1;jettySize=auto;html=1;entryX=0.624;entryY=-0.06;entryDx=0;entryDy=0;entryPerimeter=0;" edge="1" parent="1" source="XFtc8W5LfdA4O5aleAHy-11" target="XFtc8W5LfdA4O5aleAHy-13">
          <mxGeometry relative="1" as="geometry" />
        </mxCell>
        <mxCell id="XFtc8W5LfdA4O5aleAHy-22" style="edgeStyle=orthogonalEdgeStyle;rounded=0;orthogonalLoop=1;jettySize=auto;html=1;entryX=0.5;entryY=0;entryDx=0;entryDy=0;" edge="1" parent="1" source="XFtc8W5LfdA4O5aleAHy-16" target="XFtc8W5LfdA4O5aleAHy-18">
          <mxGeometry relative="1" as="geometry" />
        </mxCell>
        <mxCell id="XFtc8W5LfdA4O5aleAHy-16" value="str askToAddMoney = display &quot;Would you like to add money to the account, type yes or no &quot;" style="rounded=0;whiteSpace=wrap;html=1;" vertex="1" parent="1">
          <mxGeometry x="600" y="110" width="130" height="70" as="geometry" />
        </mxCell>
        <mxCell id="XFtc8W5LfdA4O5aleAHy-23" value="" style="edgeStyle=orthogonalEdgeStyle;rounded=0;orthogonalLoop=1;jettySize=auto;html=1;" edge="1" parent="1" source="XFtc8W5LfdA4O5aleAHy-18" target="XFtc8W5LfdA4O5aleAHy-19">
          <mxGeometry relative="1" as="geometry" />
        </mxCell>
        <mxCell id="XFtc8W5LfdA4O5aleAHy-24" style="edgeStyle=orthogonalEdgeStyle;rounded=0;orthogonalLoop=1;jettySize=auto;html=1;" edge="1" parent="1" source="XFtc8W5LfdA4O5aleAHy-18" target="XFtc8W5LfdA4O5aleAHy-19">
          <mxGeometry relative="1" as="geometry" />
        </mxCell>
        <mxCell id="XFtc8W5LfdA4O5aleAHy-18" value="input addMoney" style="shape=parallelogram;perimeter=parallelogramPerimeter;whiteSpace=wrap;html=1;fixedSize=1;" vertex="1" parent="1">
          <mxGeometry x="600" y="200" width="130" height="60" as="geometry" />
        </mxCell>
        <mxCell id="XFtc8W5LfdA4O5aleAHy-28" style="edgeStyle=orthogonalEdgeStyle;rounded=0;orthogonalLoop=1;jettySize=auto;html=1;entryX=0.5;entryY=0;entryDx=0;entryDy=0;" edge="1" parent="1" source="XFtc8W5LfdA4O5aleAHy-19" target="XFtc8W5LfdA4O5aleAHy-30">
          <mxGeometry relative="1" as="geometry">
            <mxPoint x="790" y="440" as="targetPoint" />
          </mxGeometry>
        </mxCell>
        <mxCell id="pJoHsH9X2lBTt6ZdLXsH-1" style="edgeStyle=orthogonalEdgeStyle;rounded=0;orthogonalLoop=1;jettySize=auto;html=1;" edge="1" parent="1" source="XFtc8W5LfdA4O5aleAHy-19" target="pJoHsH9X2lBTt6ZdLXsH-3">
          <mxGeometry relative="1" as="geometry">
            <mxPoint x="580" y="490" as="targetPoint" />
          </mxGeometry>
        </mxCell>
        <mxCell id="XFtc8W5LfdA4O5aleAHy-19" value="if addMoney == &quot;yes&quot;" style="rhombus;whiteSpace=wrap;html=1;" vertex="1" parent="1">
          <mxGeometry x="600" y="285" width="130" height="145" as="geometry" />
        </mxCell>
        <mxCell id="XFtc8W5LfdA4O5aleAHy-25" value="askUserAddMoney()" style="ellipse;whiteSpace=wrap;html=1;" vertex="1" parent="1">
          <mxGeometry x="600" width="120" height="80" as="geometry" />
        </mxCell>
        <mxCell id="XFtc8W5LfdA4O5aleAHy-26" value="askUserAddMoney()" style="shape=process;whiteSpace=wrap;html=1;backgroundOutline=1;" vertex="1" parent="1">
          <mxGeometry x="210" y="430" width="200" height="60" as="geometry" />
        </mxCell>
        <mxCell id="XFtc8W5LfdA4O5aleAHy-29" style="edgeStyle=orthogonalEdgeStyle;rounded=0;orthogonalLoop=1;jettySize=auto;html=1;entryX=0.452;entryY=0.029;entryDx=0;entryDy=0;entryPerimeter=0;" edge="1" parent="1" source="XFtc8W5LfdA4O5aleAHy-25" target="XFtc8W5LfdA4O5aleAHy-16">
          <mxGeometry relative="1" as="geometry" />
        </mxCell>
        <mxCell id="XFtc8W5LfdA4O5aleAHy-30" value="addMoneyToAccount()" style="shape=process;whiteSpace=wrap;html=1;backgroundOutline=1;" vertex="1" parent="1">
          <mxGeometry x="750" y="380" width="170" height="80" as="geometry" />
        </mxCell>
        <mxCell id="XFtc8W5LfdA4O5aleAHy-32" style="edgeStyle=orthogonalEdgeStyle;rounded=0;orthogonalLoop=1;jettySize=auto;html=1;" edge="1" parent="1" source="XFtc8W5LfdA4O5aleAHy-31">
          <mxGeometry relative="1" as="geometry">
            <mxPoint x="500" y="340" as="targetPoint" />
          </mxGeometry>
        </mxCell>
        <mxCell id="XFtc8W5LfdA4O5aleAHy-31" value="addMoneyToAccount()" style="ellipse;whiteSpace=wrap;html=1;" vertex="1" parent="1">
          <mxGeometry x="430" y="220" width="140" height="80" as="geometry" />
        </mxCell>
        <mxCell id="XFtc8W5LfdA4O5aleAHy-33" value="double addMoney = display &quot;Enter the amount of money you want to add&quot;" style="rounded=0;whiteSpace=wrap;html=1;" vertex="1" parent="1">
          <mxGeometry x="440" y="340" width="120" height="60" as="geometry" />
        </mxCell>
        <mxCell id="pJoHsH9X2lBTt6ZdLXsH-3" value="end()" style="ellipse;whiteSpace=wrap;html=1;" vertex="1" parent="1">
          <mxGeometry x="610" y="470" width="110" height="50" as="geometry" />
        </mxCell>
        <mxCell id="pJoHsH9X2lBTt6ZdLXsH-11" style="edgeStyle=orthogonalEdgeStyle;rounded=0;orthogonalLoop=1;jettySize=auto;html=1;entryX=0.5;entryY=0;entryDx=0;entryDy=0;" edge="1" parent="1" source="pJoHsH9X2lBTt6ZdLXsH-6" target="pJoHsH9X2lBTt6ZdLXsH-10">
          <mxGeometry relative="1" as="geometry" />
        </mxCell>
        <mxCell id="pJoHsH9X2lBTt6ZdLXsH-6" value="askUserIfWithdraw()" style="ellipse;whiteSpace=wrap;html=1;" vertex="1" parent="1">
          <mxGeometry y="210" width="181.25" height="75" as="geometry" />
        </mxCell>
        <mxCell id="pJoHsH9X2lBTt6ZdLXsH-12" style="edgeStyle=orthogonalEdgeStyle;rounded=0;orthogonalLoop=1;jettySize=auto;html=1;" edge="1" parent="1" source="pJoHsH9X2lBTt6ZdLXsH-10" target="pJoHsH9X2lBTt6ZdLXsH-13">
          <mxGeometry relative="1" as="geometry">
            <mxPoint x="90.63000000000011" y="405" as="targetPoint" />
          </mxGeometry>
        </mxCell>
        <mxCell id="pJoHsH9X2lBTt6ZdLXsH-10" value="display &quot;Would you like to withdraw money from your account&quot;" style="rounded=0;whiteSpace=wrap;html=1;" vertex="1" parent="1">
          <mxGeometry x="30.63" y="315" width="120" height="60" as="geometry" />
        </mxCell>
        <mxCell id="pJoHsH9X2lBTt6ZdLXsH-15" style="edgeStyle=orthogonalEdgeStyle;rounded=0;orthogonalLoop=1;jettySize=auto;html=1;entryX=0.5;entryY=0;entryDx=0;entryDy=0;" edge="1" parent="1" source="pJoHsH9X2lBTt6ZdLXsH-13" target="pJoHsH9X2lBTt6ZdLXsH-14">
          <mxGeometry relative="1" as="geometry" />
        </mxCell>
        <mxCell id="pJoHsH9X2lBTt6ZdLXsH-13" value="input wantToWithdraw" style="shape=parallelogram;perimeter=parallelogramPerimeter;whiteSpace=wrap;html=1;fixedSize=1;" vertex="1" parent="1">
          <mxGeometry x="10.010000000000002" y="400" width="161.25" height="60" as="geometry" />
        </mxCell>
        <mxCell id="pJoHsH9X2lBTt6ZdLXsH-16" style="edgeStyle=orthogonalEdgeStyle;rounded=0;orthogonalLoop=1;jettySize=auto;html=1;" edge="1" parent="1" source="pJoHsH9X2lBTt6ZdLXsH-14" target="pJoHsH9X2lBTt6ZdLXsH-17">
          <mxGeometry relative="1" as="geometry">
            <mxPoint x="200" y="590" as="targetPoint" />
          </mxGeometry>
        </mxCell>
        <mxCell id="pJoHsH9X2lBTt6ZdLXsH-14" value="if&amp;nbsp; wantToWithdraw == &quot;yes&quot;" style="rhombus;whiteSpace=wrap;html=1;" vertex="1" parent="1">
          <mxGeometry x="15.629999999999999" y="490" width="150" height="90" as="geometry" />
        </mxCell>
        <mxCell id="pJoHsH9X2lBTt6ZdLXsH-17" value="withDrawFromAccount()" style="shape=process;whiteSpace=wrap;html=1;backgroundOutline=1;" vertex="1" parent="1">
          <mxGeometry x="70" y="610" width="175" height="60" as="geometry" />
        </mxCell>
        <mxCell id="pJoHsH9X2lBTt6ZdLXsH-19" value="withDrawFromAccount()" style="ellipse;whiteSpace=wrap;html=1;" vertex="1" parent="1">
          <mxGeometry x="400" y="530" width="200" height="80" as="geometry" />
        </mxCell>
        <mxCell id="pJoHsH9X2lBTt6ZdLXsH-20" value="askUserIfWithdraw()" style="shape=process;whiteSpace=wrap;html=1;backgroundOutline=1;" vertex="1" parent="1">
          <mxGeometry x="420" y="640" width="150" height="60" as="geometry" />
        </mxCell>
        <mxCell id="pJoHsH9X2lBTt6ZdLXsH-21" style="edgeStyle=orthogonalEdgeStyle;rounded=0;orthogonalLoop=1;jettySize=auto;html=1;entryX=0.397;entryY=0.027;entryDx=0;entryDy=0;entryPerimeter=0;" edge="1" parent="1" source="pJoHsH9X2lBTt6ZdLXsH-19" target="pJoHsH9X2lBTt6ZdLXsH-20">
          <mxGeometry relative="1" as="geometry" />
        </mxCell>
      </root>
    </mxGraphModel>
  </diagram>
  <diagram id="SExNQM3IjvbL6frW_XNe" name="Page-4">
    <mxGraphModel dx="1276" dy="421" grid="1" gridSize="10" guides="1" tooltips="1" connect="1" arrows="1" fold="1" page="1" pageScale="1" pageWidth="827" pageHeight="1169" math="0" shadow="0">
      <root>
        <mxCell id="0" />
        <mxCell id="1" parent="0" />
        <mxCell id="BnUYNP9wJNGA5oEf69gj-5" style="edgeStyle=orthogonalEdgeStyle;rounded=0;orthogonalLoop=1;jettySize=auto;html=1;" edge="1" parent="1" source="BnUYNP9wJNGA5oEf69gj-2" target="BnUYNP9wJNGA5oEf69gj-3">
          <mxGeometry relative="1" as="geometry" />
        </mxCell>
        <mxCell id="BnUYNP9wJNGA5oEf69gj-2" value="&lt;font size=&quot;3&quot;&gt;Input: ask the user if they would like to create an account /// now they are asked for their name and to create a password /// after entering the amount of money into account user is asked if they want to remove money from account&lt;/font&gt;" style="rounded=0;whiteSpace=wrap;html=1;" vertex="1" parent="1">
          <mxGeometry x="20" y="170" width="310" height="140" as="geometry" />
        </mxCell>
        <mxCell id="BnUYNP9wJNGA5oEf69gj-4" style="edgeStyle=orthogonalEdgeStyle;rounded=0;orthogonalLoop=1;jettySize=auto;html=1;entryX=1;entryY=0.5;entryDx=0;entryDy=0;" edge="1" parent="1" source="BnUYNP9wJNGA5oEf69gj-3" target="BnUYNP9wJNGA5oEf69gj-2">
          <mxGeometry relative="1" as="geometry" />
        </mxCell>
        <mxCell id="BnUYNP9wJNGA5oEf69gj-8" style="edgeStyle=orthogonalEdgeStyle;rounded=0;orthogonalLoop=1;jettySize=auto;html=1;" edge="1" parent="1" source="BnUYNP9wJNGA5oEf69gj-3">
          <mxGeometry relative="1" as="geometry">
            <mxPoint x="520" y="400" as="targetPoint" />
          </mxGeometry>
        </mxCell>
        <mxCell id="BnUYNP9wJNGA5oEf69gj-3" value="&lt;font size=&quot;3&quot;&gt;Proccess: If user does want to create an account then they will be asked for more input ///&amp;nbsp; the information provoded will be stored in a variable /// if user does want to remove then x amount is subtracted from the total amount of money in account&lt;/font&gt;" style="rounded=0;whiteSpace=wrap;html=1;" vertex="1" parent="1">
          <mxGeometry x="390" y="170" width="270" height="140" as="geometry" />
        </mxCell>
        <mxCell id="BnUYNP9wJNGA5oEf69gj-6" value="&lt;font size=&quot;3&quot;&gt;Input&lt;/font&gt;" style="text;html=1;align=center;verticalAlign=middle;resizable=0;points=[];autosize=1;strokeColor=none;fillColor=none;" vertex="1" parent="1">
          <mxGeometry x="90" y="118" width="60" height="30" as="geometry" />
        </mxCell>
        <mxCell id="BnUYNP9wJNGA5oEf69gj-7" value="&lt;font size=&quot;3&quot;&gt;Process&lt;/font&gt;" style="text;html=1;align=center;verticalAlign=middle;resizable=0;points=[];autosize=1;strokeColor=none;fillColor=none;" vertex="1" parent="1">
          <mxGeometry x="490" y="110" width="80" height="30" as="geometry" />
        </mxCell>
        <mxCell id="BnUYNP9wJNGA5oEf69gj-9" value="&lt;font size=&quot;3&quot;&gt;Output:&amp;nbsp; The users name, so it will say welcome {usersName} /// the amount of money in the account gets outputted too and then the amount removed from the account if the user wishes to remove money from the account, it will also show how much money is left.&amp;nbsp;&lt;/font&gt;" style="rounded=0;whiteSpace=wrap;html=1;" vertex="1" parent="1">
          <mxGeometry x="390" y="400" width="250" height="200" as="geometry" />
        </mxCell>
      </root>
    </mxGraphModel>
  </diagram>
</mxfile>
